# xmcd
#
# Track frame offsets: 
#        150
#        11177
#        26680
#        40357
#        52772
#        65167
#        77480
#        90147
#        104865
#        116032
#
# Disc length: 1769 seconds
#
# Revision: 1
# Processed by: cddbd v1.4PL0 Copyright (c) Steve Scherf et al.
# Submitted via: ExactAudioCopy v0.90b3
#
DISCID=7e06e70a
DTITLE=George Jones and Tammy Wynette - Together Again
DYEAR=1900
DGENRE=Country
TTITLE0=A Pair Of Old Sneakers
TTITLE1=Right In The Wrong Direction
TTITLE2=I Just Started Livin' Today
TTITLE3=Love In The Meantime
TTITLE4=We Could
TTITLE5=Two Story House
TTITLE6=If We Don't Make It
TTITLE7=It's Not My Fault
TTITLE8=We'll Talk About It Later
TTITLE9=Night Spell
EXTD=
EXTT0=
EXTT1=
EXTT2=
EXTT3=
EXTT4=
EXTT5=
EXTT6=
EXTT7=
EXTT8=
EXTT9=
PLAYORDER=
